HIERARCHY
ROOT Hips
{
	OFFSET 51.796200 -36.281315 84.598389
	CHANNELS 6 Xposition Yposition Zposition Xrotation Yrotation Zrotation
	JOINT spine
	{
		OFFSET 0.000000 -0.342407 5.954384
		CHANNELS 3 Xrotation Yrotation Zrotation
		JOINT spine1
		{
			OFFSET 0.000000 0.000000 8.856018
			CHANNELS 3 Xrotation Yrotation Zrotation
			JOINT spine2
			{
				OFFSET 0.000000 -0.000004 8.485672
				CHANNELS 3 Xrotation Yrotation Zrotation
				JOINT Neck
				{
					OFFSET 0.000000 -1.038704 21.786308
					CHANNELS 3 Xrotation Yrotation Zrotation
					JOINT Head
					{
						OFFSET 0.000000 0.000000 6.582199
						CHANNELS 3 Xrotation Yrotation Zrotation
						End Site
						{
							OFFSET 0.000000 5.254356 15.932602
						}
					}
				}
				JOINT RightShoulder
				{
					OFFSET -3.573071 0.497524 9.163864
					CHANNELS 3 Xrotation Yrotation Zrotation
					JOINT RightArm
					{
						OFFSET 0.000000 -0.000004 12.019203
						CHANNELS 3 Xrotation Yrotation Zrotation
						JOINT RightArmRoll
						{
							OFFSET 0.000000 0.000000 6.067535
							CHANNELS 3 Xrotation Yrotation Zrotation
							JOINT RightForeArm
							{
								OFFSET 0.000000 -0.000004 17.672592
								CHANNELS 3 Xrotation Yrotation Zrotation
								JOINT RightForeArmRoll
								{
									OFFSET 0.000000 0.000000 6.808716
									CHANNELS 3 Xrotation Yrotation Zrotation
									JOINT RightHand
									{
										OFFSET 0.000000 0.000000 13.663605
										CHANNELS 3 Xrotation Yrotation Zrotation
										End Site
										{
											OFFSET 0.000000 0.000000 0.100006
										}
									}
								}
							}
						}
					}
				}
				JOINT LeftShoulder
				{
					OFFSET 3.573071 0.497524 9.163864
					CHANNELS 3 Xrotation Yrotation Zrotation
					JOINT LeftArm
					{
						OFFSET 0.000000 -0.000004 12.019203
						CHANNELS 3 Xrotation Yrotation Zrotation
						JOINT LeftArmRoll
						{
							OFFSET 0.000000 0.000000 6.067551
							CHANNELS 3 Xrotation Yrotation Zrotation
							JOINT LeftForeArm
							{
								OFFSET 0.000000 -0.000004 17.672607
								CHANNELS 3 Xrotation Yrotation Zrotation
								JOINT LeftForeArmRoll
								{
									OFFSET 0.000000 0.000000 6.808716
									CHANNELS 3 Xrotation Yrotation Zrotation
									JOINT LeftHand
									{
										OFFSET 0.000000 0.000000 13.663605
										CHANNELS 3 Xrotation Yrotation Zrotation
										End Site
										{
											OFFSET 0.000000 0.000000 0.100006
										}
									}
								}
							}
						}
					}
				}
			}
		}
	}
	JOINT RightUpLeg
	{
		OFFSET -5.277740 0.811859 -0.967796
		CHANNELS 3 Xrotation Yrotation Zrotation
		JOINT RightUpLegRoll
		{
			OFFSET 0.000000 0.000000 16.021400
			CHANNELS 3 Xrotation Yrotation Zrotation
			JOINT RightLeg
			{
				OFFSET 0.000000 0.000004 -19.840096
				CHANNELS 3 Xrotation Yrotation Zrotation
				JOINT RightLegRoll
				{
					OFFSET 0.000000 -0.000004 19.904999
					CHANNELS 3 Xrotation Yrotation Zrotation
					JOINT RightFoot
					{
						OFFSET 0.000000 -0.000004 16.567497
						CHANNELS 3 Xrotation Yrotation Zrotation
						JOINT RightToeBase
						{
							OFFSET 0.000000 -0.000004 13.849609
							CHANNELS 3 Xrotation Yrotation Zrotation
							End Site
							{
								OFFSET 0.005871 0.773117 6.707275
							}
						}
					}
				}
			}
		}
	}
	JOINT LeftUpLeg
	{
		OFFSET 5.277740 0.811859 -0.967796
		CHANNELS 3 Xrotation Yrotation Zrotation
		JOINT LeftUpLegRoll
		{
			OFFSET 0.000000 0.000000 16.021500
			CHANNELS 3 Xrotation Yrotation Zrotation
			JOINT LeftLeg
			{
				OFFSET 0.000000 -0.000004 19.839996
				CHANNELS 3 Xrotation Yrotation Zrotation
				JOINT LeftLegRoll
				{
					OFFSET 0.000000 -0.000004 20.089012
					CHANNELS 3 Xrotation Yrotation Zrotation
					JOINT LeftFoot
					{
						OFFSET 0.000000 -0.000004 16.383499
						CHANNELS 3 Xrotation Yrotation Zrotation
						JOINT LeftToeBase
						{
							OFFSET 0.000000 0.000000 13.849594
							CHANNELS 3 Xrotation Yrotation Zrotation
							End Site
							{
								OFFSET -0.026310 0.773113 6.707275
							}
						}
					}
				}
			}
		}
	}
}
MOTION
Frames: 5
Frame Time: 0.041667
50.082497 7.773781 54.920288 -19.325955 0.858393 5.034517 -0.408889 0.358140 -0.334774 3.184829 0.715257 -0.672346 4.829905 0.707083 -0.687812 25.468278 -6.632169 -0.579966 9.599392 1.194541 -0.716679 4.792084 -95.341764 0.815738 73.023984 -64.476952 83.403467 0.000001 -0.000000 -0.000000 -0.013847 3.637410 -1.990772 0.000010 0.000007 -3.011609 -5.000141 -7.999939 0.000018 -22.560106 71.533486 26.338294 -65.921038 121.697852 70.132471 0.000009 0.000014 0.000011 -0.029754 -3.651011 1.990766 -0.000006 -0.000000 3.011610 -5.000160 7.999931 0.000003 -73.363581 -176.989189 0.548811 179.999991 0.000005 -2.119994 80.750355 6.733661 2.186344 0.000002 0.000000 2.821500 65.146611 7.335013 1.320700 25.456965 -7.355619 0.000013 -74.629693 178.198556 2.375637 0.000026 -0.000004 -2.394930 -99.730126 -6.968119 -3.841826 0.000000 0.000001 -2.771340 59.287080 -7.877766 -0.645615 25.456953 7.355613 -0.000009 
50.084297 7.767841 54.915588 -19.303102 0.848171 5.040753 -0.413212 0.359927 -0.334775 3.176358 0.718856 -0.672342 4.821439 0.710679 -0.687727 25.487915 -6.635341 -0.580444 9.579928 1.190724 -0.717420 4.877161 -95.317141 0.901507 73.015958 -64.512202 83.400045 0.000000 -0.000000 -0.000000 -0.013849 3.637411 -1.990772 0.000008 0.000007 -3.011611 -5.000142 -7.999940 0.000018 -22.570124 71.517620 26.349791 -65.885678 121.709668 70.114549 0.000011 0.000013 0.000011 -0.029755 -3.651011 1.990766 -0.000000 -0.000001 3.011610 -5.000160 7.999930 0.000003 -73.386968 -176.977073 0.544642 179.999991 0.000005 -2.118997 80.750683 6.730335 2.185453 0.000001 0.000000 2.820890 65.149527 7.334983 1.321697 25.456964 -7.355620 0.000014 -74.657868 178.212777 2.368465 0.000025 -0.000004 -2.394080 -99.734689 -6.963964 -3.841753 0.000001 0.000001 -2.770921 59.282456 -7.877428 -0.647164 25.456952 7.355618 -0.000008 
50.057396 7.788536 54.893990 -19.279645 0.837543 5.047176 -0.417626 0.361810 -0.334777 3.167731 0.722646 -0.672334 4.812811 0.714466 -0.687656 25.507452 -6.638661 -0.581052 9.559633 1.186526 -0.718204 4.961926 -95.292320 0.987038 73.007243 -64.548307 83.396296 0.000001 0.000000 0.000000 -0.013850 3.637410 -1.990773 0.000010 0.000007 -3.011611 -5.000144 -7.999938 0.000018 -22.580727 71.500824 26.361957 -65.847579 121.722468 70.094796 0.000014 0.000013 0.000011 -0.029753 -3.651010 1.990766 -0.000004 -0.000001 3.011611 -5.000163 7.999930 0.000003 -73.410853 -176.964505 0.540741 179.999991 0.000005 -2.117986 80.751230 6.726816 2.184536 0.000002 0.000000 2.820260 65.152580 7.335009 1.322698 25.456971 -7.355621 0.000013 -74.686705 178.227557 2.360517 0.000025 -0.000004 -2.393210 -99.739292 -6.959584 -3.841660 0.000000 0.000001 -2.770511 59.277600 -7.877081 -0.648828 25.456960 7.355619 -0.000009 
50.056194 7.789589 54.894798 -19.255584 0.826631 5.053751 -0.422101 0.363760 -0.334779 3.158973 0.726571 -0.672322 4.804054 0.718386 -0.687592 25.527007 -6.642087 -0.581734 9.538767 1.182072 -0.719021 5.046688 -95.267403 1.072609 72.997981 -64.585074 83.392150 -0.000000 0.000000 -0.000001 -0.013845 3.637410 -1.990772 0.000009 0.000007 -3.011611 -5.000142 -7.999940 0.000019 -22.591949 71.483524 26.374815 -65.808135 121.735787 70.074408 0.000010 0.000014 0.000011 -0.029753 -3.651010 1.990766 -0.000001 -0.000000 3.011610 -5.000163 7.999931 0.000003 -73.435107 -176.951746 0.537541 179.999991 0.000005 -2.116989 80.751879 6.723258 2.183408 0.000001 -0.000000 2.819610 65.155708 7.334968 1.323780 25.456964 -7.355621 0.000011 -74.716122 178.242625 2.352441 0.000026 -0.000005 -2.392330 -99.743718 -6.955083 -3.841546 -0.000000 0.000001 -2.770101 59.272648 -7.876712 -0.650492 25.456959 7.355616 -0.000009 
50.115799 7.748566 54.937691 -19.231424 0.815560 5.060418 -0.426608 0.365748 -0.334780 3.150157 0.730572 -0.672307 4.795231 0.722384 -0.687533 25.546562 -6.645576 -0.582454 9.517574 1.177460 -0.719857 5.131925 -95.242302 1.158667 72.988426 -64.622223 83.387922 0.000001 0.000000 0.000000 -0.013842 3.637410 -1.990772 0.000009 0.000007 -3.011611 -5.000151 -7.999939 0.000018 -22.603114 71.465690 26.387633 -65.768820 121.749228 70.054696 0.000013 0.000013 0.000011 -0.029752 -3.651011 1.990766 -0.000005 -0.000001 3.011610 -5.000161 7.999930 0.000004 -73.459668 -176.938509 0.533305 179.999991 0.000005 -2.114994 80.752596 6.719623 2.182471 0.000001 -0.000000 2.818960 65.158850 7.335014 1.324878 25.456964 -7.355621 0.000013 -74.745834 178.257678 2.344903 0.000025 -0.000004 -2.391440 -99.748226 -6.950640 -3.840442 -0.000000 0.000001 -2.769691 59.267600 -7.876404 -0.652081 25.456952 7.355617 -0.000009 
